PathFileType	4	(X/Y/Z)	pose_F01_0-83.trc
DataRate	CameraRate	NumFrames	NumMarkers	Units	OrigDataRate	OrigDataStartFrame	OrigNumFrames
30	30	10	21	m	30	69	83
Frame#	Time	CHip			RHip			RKnee			RAnkle			RBigToe			RSmallToe			RHeel			LHip			LKnee			LAnkle			LBigToe			LSmallToe			LHeel			Neck			Nose			RShoulder			RElbow			RWrist			LShoulder			LElbow			LWrist			
		X1	Y1	Z1	X2	Y2	Z2	X3	Y3	Z3	X4	Y4	Z4	X5	Y5	Z5	X6	Y6	Z6	X7	Y7	Z7	X8	Y8	Z8	X9	Y9	Z9	X10	Y10	Z10	X11	Y11	Z11	X12	Y12	Z12	X13	Y13	Z13	X14	Y14	Z14	X15	Y15	Z15	X16	Y16	Z16	X17	Y17	Z17	X18	Y18	Z18	X19	Y19	Z19	X20	Y20	Z20	X21	Y21	Z21	
69	2.3	-0.2667970402298413	1.8165238541488937	-0.6952319986689995	-0.27929849977281596	1.8102598572211712	-0.634044101481973	-0.2527965491659693	1.6739183738579753	-0.4113090556152132													-0.2532939093260848	1.8192946665295766	-0.7580518801314386	-0.23187099092732527	1.6928725594294642	-0.6394091170467422				-0.35335769709935605	1.4831912087162533	-0.9785916171265376							-1.168862171411144	1.823553759907605	0.1288992253288839	-0.18945839665351566	1.9597590986772777	-0.8512712633453884	-1.285733281801607	1.8328923670793735	0.3367793924956892	-0.25131495359572165	1.8521339201297138	-0.6372526837509314	-0.2320057966471145	1.7835564732814686	-0.6553016214662793	-1.0376408598982154	1.8128868786856362	-0.09035078794579934	-0.6902818564324034	1.7866461708210097	-0.4056243559568641	-1.0144082666717187	1.8069553997842995	-0.0778659228816023
70	2.3333333333333335	-0.26587642911307274	1.8180976811644713	-0.696767370059732	-0.27739010871092834	1.8131274173554297	-0.6362552984198303	-0.2527965491659693	1.6739183738579753	-0.4113090556152132													-0.2533274542944205	1.8200887345835675	-0.7583735486209311	-0.23187099092732527	1.6928725594294642	-0.6394091170467422				-0.35335769709935605	1.4831912087162533	-0.9785916171265376							-1.1736226677469133	1.8324443465276443	0.13378202137039463	-0.18993365766525588	1.9726290278968837	-0.8441636729314277	-1.3024528107078677	1.8425640541879034	0.3604743431603227	-0.24994347132777134	1.8649022604569814	-0.6439923139194857	-0.24503185130983188	1.7982237053783408	-0.6308719630713678	-1.0436038610786915	1.8251208461658188	-0.08853415858213223	-0.8494867950274104	1.7751616371883463	-0.25490164257376713	-1.04576532391198	1.8155324007482116	-0.028647865912951032
71	2.3666666666666667	-0.2649558179963042	1.819671508180049	-0.6983027414504644	-0.2754817176490407	1.815994977489688	-0.6384664953576876	-0.2527965491659693	1.6739183738579753	-0.4113090556152132													-0.25336099926275624	1.8208828026375583	-0.7586952171104234	-0.23187099092732527	1.6928725594294642	-0.6394091170467422				-0.35335769709935605	1.4831912087162533	-0.9785916171265376							-1.1949155572330348	1.842640667219284	0.16717308107785875	-0.19347839297467984	1.9880244706137848	-0.8383003826064774	-1.3139503207991572	1.8507827930000211	0.37803116343674714	-0.2527457323132359	1.8651047160070393	-0.6450251204743778	-0.2509174768683274	1.785068306643372	-0.6315848292402946	-1.07141728056687	1.8349800112665418	-0.04568679499527778	-1.0086917336224175	1.763677103555683	-0.10417892919067015	-1.0170250206120957	1.8130019222587637	-0.08088628781564552
72	2.4	-0.26403520687953563	1.8212453351956264	-0.6998381128411968	-0.27357332658715316	1.8188625376239462	-0.6406776922955448	-0.2527965491659693	1.6739183738579753	-0.4113090556152132													-0.2533945442310919	1.8216768706915492	-0.7590168855999159	-0.23187099092732527	1.6928725594294642	-0.6394091170467422				-0.35335769709935605	1.4831912087162533	-0.9785916171265376							-1.2031204459559335	1.8539268823145916	0.17508726514256273	-0.19614784743893615	2.0020419113632038	-0.8294113470407913	-1.334201428781576	1.8612860812823349	0.405971537733965	-0.25456316081944735	1.8733600028635706	-0.6437266851518422	-0.2530562767452892	1.7930170940327035	-0.6048001778295229	-0.2191563596762249	1.9447783705998833	-0.8706946373029887	-1.0049514290816248	1.7743374022954248	-0.11852509300260186	-1.0267381225236367	1.8205688542985297	-0.07419398670911422
73	2.433333333333333	-0.2631145957627671	1.822819162211204	-0.7013734842319292	-0.27166493552526555	1.8217300977582045	-0.6428888892334021	-0.2527965491659693	1.6739183738579753	-0.4113090556152132													-0.25342808919942766	1.82247093874554	-0.7593385540894083	-0.23187099092732527	1.6928725594294642	-0.6394091170467422				-0.35335769709935605	1.4831912087162533	-0.9785916171265376							-0.23331186964882009	1.9595179758084282	-0.7854558493380327	-0.19821595113268642	2.0129392727091644	-0.827852072944813	-0.24431265726652152	1.9657575865889667	-0.7038272220295047	-0.26357495929596314	1.8844369541106527	-0.6275879542912446	-0.26842068251789686	1.8101306471171794	-0.5731774071733179	-0.21799932035373343	1.9548006059731802	-0.8684550365936127	-0.9976126773890188	1.7804072341520039	-0.14074813812842243	-1.0202912140212685	1.823861885653571	-0.09421336972596465
74	2.466666666666667	-0.2586778533617533	1.8228250984500804	-0.711877015715461	-0.2700870464869708	1.8214338917296011	-0.6486040249315763	-0.2527965491659693	1.6739183738579753	-0.4113090556152132													-0.24989069234039446	1.823271289042846	-0.7708391329459052	-0.23187099092732527	1.6928725594294642	-0.6394091170467422				-0.35335769709935605	1.4831912087162533	-0.9785916171265376							-0.23381226704140923	1.964720572472148	-0.7887129729560014	-0.20033422131901538	2.021413220094833	-0.8266530384493718	-0.24738598984946408	1.9698507084746397	-0.7052531077662542	-0.25761721109738994	1.8862336205639392	-0.626201251762878	-0.25577482616487435	1.8111300839811344	-0.5525885248477094	-0.21706055970753377	1.9608636094556189	-0.876953619427336	-0.9793393956608751	1.7824590668984779	-0.17602324006317596	-0.9892200351162292	1.8249454294357312	-0.14975675525014162
75	2.5	-0.25424111096073954	1.8228310346889567	-0.7223805471989927	-0.26781498879617155	1.822255485939789	-0.6593048868482021	-0.2527965491659693	1.6739183738579753	-0.4113090556152132													-0.24635329548136126	1.8240716393401522	-0.7823397118024021	-0.23187099092732527	1.6928725594294642	-0.6394091170467422				-0.35335769709935605	1.4831912087162533	-0.9785916171265376							-0.23681276840689922	1.9736653427561803	-0.790415641403643	-0.2032186215934003	2.0287146472314745	-0.8280807996861331	-0.2495404839325593	1.9761627907929167	-0.7039360424153707	-0.2677818539491049	1.904066146504219	-0.6172560700808798	-0.28437348385441713	1.8368092188664646	-0.524173978217947	-0.2171398836154988	1.9674680003770137	-0.8779260213669301	-0.9647655058334998	1.7895879880309045	-0.20720082829804237	-0.19750217040440599	1.9460331867797964	-0.9133354590415532
76	2.533333333333333	-0.25426038827030056	1.8241471187334644	-0.7305176206189613	-0.2655429311053723	1.8230770801499767	-0.6700057487648278	-0.2527965491659693	1.6739183738579753	-0.4113090556152132													-0.24281589862232805	1.8248719896374581	-0.793840290658899	-0.23187099092732527	1.6928725594294642	-0.6394091170467422				-0.35335769709935605	1.4831912087162533	-0.9785916171265376							-0.23779007527920792	1.976736802905736	-0.7939393667203568	-0.20530057694519493	2.034020821481842	-0.8263604983986532	-0.2526228401951622	1.977413663984272	-0.7050155467470822	-0.27210468734175114	1.9052031870921275	-0.6130428026510865	-0.28530530778917373	1.8463952065049414	-0.5198742943017813	-0.21862660487653762	1.9722559489682943	-0.8842659409739392	-0.9563706624062441	1.7949342315649	-0.21915894807904057	-0.1963473608237936	1.9495198196531636	-0.9217130948410712
77	2.566666666666667	-0.2529001090455916	1.827337271624148	-0.7361384414441208	-0.2640044052965031	1.8267157450330886	-0.6758659698810904	-0.2527965491659693	1.6739183738579753	-0.4113090556152132													-0.24330418539699625	1.8257933086640785	-0.7972502901878806	-0.23187099092732527	1.6928725594294642	-0.6394091170467422				-0.35335769709935605	1.4831912087162533	-0.9785916171265376							-0.23631847942379955	1.9791298992262143	-0.7995111238571017	-0.20609447275059467	2.038137276528076	-0.8298996835461069	-0.25314498107562783	1.982467800440725	-0.7084866756119298	-0.2716967466795941	1.9129670217849164	-0.6225474724742753	-0.287421408344243	1.8495388519353901	-0.5269326811337514	-0.21693014166581656	1.9750387507021985	-0.8896286028928222	-0.9595164311354766	1.797462569307788	-0.2112786760528924	-0.1965025755299409	1.9660172664100775	-0.9142258930673716
78	2.6	-0.2513195397290154	1.828703290214059	-0.7418502908803415	-0.26164499580521344	1.828312886706177	-0.6785426455986072	-0.2527965491659693	1.6739183738579753	-0.4113090556152132													-0.23867810650520324	1.8252021244702035	-0.801953425363869	-0.23187099092732527	1.6928725594294642	-0.6394091170467422				-0.35335769709935605	1.4831912087162533	-0.9785916171265376							-0.2368625528963868	1.984825278141448	-0.8032211926742762	-0.20670900121643113	2.0433089204925317	-0.8333910287092899	-0.2517644588102826	1.9884888210365288	-0.7143664316851381	-0.271424468786169	1.9164675043571424	-0.6314486897773521	-0.28751291816936847	1.855228455396777	-0.5447108832451939	-0.21735423598383183	1.9819205424211808	-0.8929976065348021	-0.9597662038079852	1.8084240140257966	-0.20597277547927736	-0.1977743847356826	1.978496498436423	-0.9080137869101701
